# xmcd
#
# Track frame offsets:
#	150
#	17037
#	28575
#	44763
#	59505
#	80952
#	94005
#	114089
#	129254
#	147203
#	164696
#
# Disc length: 2473 seconds
#
# Revision: 0
# Processed by: cddbd v1.5.2PL0 Copyright (c) Steve Scherf et al.
# Submitted via: dBpowerAMP V4.0
#
DISCID=9509a70b
DTITLE=H.P. Lange and Troels Jensen - Change Sometimes
DYEAR=2006
DGENRE=Blues
TTITLE0=Drop Down Mama
TTITLE1=Take Your Hat And Leave
TTITLE2=Too Many Times
TTITLE3=St. Peter And The Rich Man
TTITLE4=Change Sometimes
TTITLE5=Keep The Skillet Good And Greasy
TTITLE6=Backwater Blues
TTITLE7=Can't Get That Stuff No More
TTITLE8=Things Are 'Bout Coming My Way
TTITLE9=God Don't Never Change
TTITLE10=Careless Love
EXTD=
EXTT0=
EXTT1=
EXTT2=
EXTT3=
EXTT4=
EXTT5=
EXTT6=
EXTT7=
EXTT8=
EXTT9=
EXTT10=
PLAYORDER=
